<svg xmlns="http://www.w3.org/2000/svg" xmlns:xlink="http://www.w3.org/1999/xlink" version="1.1" width="510" height="510" style="" xml:space="preserve"><rect id="backgroundrect" width="100%" height="100%" x="0" y="0" fill="none" stroke="none"/>
















<g class="currentLayer" style=""><title>Layer 1</title><g id="svg_1" class="selected" fill="#ffffff" fill-opacity="1" stroke="#6d6d6d" stroke-opacity="1">
	<g id="post-gplus" fill="#ffffff" fill-opacity="1" stroke="#6d6d6d" stroke-opacity="1">
		<path d="M235.3142857313156,175.95 c0,-25.5 -15.3,-76.5 -53.55,-76.5 c-15.3,0 -33.15,10.2 -33.15,43.35 c0,30.6 15.3,73.95 51,73.95 C199.61428573131562,216.75 235.3142857313156,214.2 235.3142857313156,175.95 zM220.01428573131562,300.9 c-2.55,0 -5.1,0 -7.65,0 l0,0 c-7.65,0 -30.6,2.55 -45.9,7.649 C148.61428573131562,313.65 128.2142857313156,326.4 128.2142857313156,351.9 c0,28.05 25.5,56.1 76.5,56.1 c38.25,0 61.2,-25.5 61.2,-51 C265.9142857313156,339.15 253.1642857313156,326.4 220.01428573131562,300.9 zM459.7142857313156,0 H51.71428573131561 C23.664285731315612,0 0.7142857313156128,22.95 0.7142857313156128,51 v408 c0,28.05 22.95,51 51,51 h408 c28.05,0 51,-22.95 51,-51 V51 C510.7142857313156,22.95 487.7642857313156,0 459.7142857313156,0 zM181.76428573131562,438.6 c-71.4,0 -104.55,-40.8 -104.55,-76.5 c0,-12.75 2.55,-40.8 38.25,-61.199 c20.4,-12.75 45.9,-20.4 79.05,-22.95 c-5.1,-5.101 -7.65,-12.75 -7.65,-25.5 c0,-5.1 0,-7.65 2.55,-12.75 h-10.2 c-51,0 -81.6,-38.25 -81.6,-76.5 c0,-43.35 33.15,-91.8 104.55,-91.8 h107.1 l-7.649,7.65 L283.7642857313156,96.9 l-2.55,2.55 h-17.85 c10.199,10.2 22.949,28.05 22.949,56.1 c0,35.7 -17.85,53.55 -40.8,68.85 c-5.1,2.55 -10.2,10.2 -10.2,17.85 s5.1,12.75 10.2,15.3 c2.55,2.55 7.65,5.101 12.75,7.65 c20.4,15.3 48.45,33.149 48.45,73.95 C306.7142857313156,385.05 273.56428573131564,438.6 181.76428573131562,438.6 zM434.2142857313156,255 h-51 v51 H357.7142857313156 v-51 h-51 v-25.5 h51 v-51 h25.5 v51 h51 V255 z" id="svg_2" fill="#ffffff" fill-opacity="1" stroke="#6d6d6d" stroke-opacity="1"/>
	</g>
</g><g id="svg_3">
</g><g id="svg_4">
</g><g id="svg_5">
</g><g id="svg_6">
</g><g id="svg_7">
</g><g id="svg_8">
</g><g id="svg_9">
</g><g id="svg_10">
</g><g id="svg_11">
</g><g id="svg_12">
</g><g id="svg_13">
</g><g id="svg_14">
</g><g id="svg_15">
</g><g id="svg_16">
</g><g id="svg_17">
</g></g></svg>